<?xml version="1.0" encoding="UTF-8"?>
<!DOCTYPE svg PUBLIC "-//W3C//DTD SVG 1.1//EN" "http://www.w3.org/Graphics/SVG/1.1/DTD/svg11.dtd">
<!-- Creator: CorelDRAW X7 -->
<svg xmlns="http://www.w3.org/2000/svg" xml:space="preserve" width="150mm" height="150mm" version="1.1" style="shape-rendering:geometricPrecision; text-rendering:geometricPrecision; image-rendering:optimizeQuality; fill-rule:evenodd; clip-rule:evenodd"
viewBox="0 0 15000 15000"
 xmlns:xlink="http://www.w3.org/1999/xlink">
 <defs>
  <style type="text/css">
   <![CDATA[
    .fil0 {fill:#FEFEFE}
   ]]>
  </style>
 </defs>
 <g id="Layer_x0020_1">
  <metadata id="CorelCorpID_0Corel-Layer"/>
  <path class="fil0" d="M7500 0c4142,0 7500,3358 7500,7500 0,4142 -3358,7500 -7500,7500 -4142,0 -7500,-3358 -7500,-7500 0,-4142 3358,-7500 7500,-7500zm661 8969c0,0 20,30 21,178 2,673 1,1608 1,2281 -1,382 -217,602 -597,606 -100,1 -201,4 -300,-9 -260,-34 -463,-250 -464,-509 -6,-785 -3,-1570 -1,-2354 0,-65 21,-130 35,-208 -125,-65 -253,-129 -378,-197 -462,-253 -887,-551 -1230,-957 -308,-366 -465,-789 -528,-1257 -78,-579 -169,-1155 -252,-1733 -32,-219 72,-340 294,-340 1825,-1 3650,-1 5475,0 219,0 326,108 295,323 -100,704 -185,1411 -323,2108 -130,651 -566,1112 -1094,1480 -304,212 -632,391 -954,588zm1604 -2730l0 0c-491,316 -672,307 -1143,-58 -189,-146 -367,-135 -571,37 -394,330 -711,331 -1098,2 -216,-185 -394,-187 -610,-9 -403,331 -677,339 -1088,29 -6,-4 -19,0 -35,0 11,78 24,154 31,230 46,470 252,857 592,1181 455,434 996,722 1576,945 58,23 147,12 204,-16 358,-178 726,-341 1062,-554 648,-410 1085,-967 1080,-1787zm205 -1224l0 0c-1662,0 -3294,0 -4929,0 4,57 3,102 11,146 54,321 32,655 400,858 275,152 418,195 667,-16 355,-300 696,-300 1048,0 251,214 417,207 677,-2 101,-82 220,-156 342,-194 270,-83 504,13 701,202 136,130 298,205 470,122 172,-83 322,-212 480,-324 14,-10 19,-39 23,-60 37,-241 72,-482 110,-732zm-2607 4173l0 0c0,769 0,1532 0,2299 97,0 187,0 277,0 0,-774 0,-1532 0,-2299 -96,0 -182,0 -277,0z"/>
 </g>
</svg>
