<?xml version="1.0" encoding="UTF-8"?>
<!DOCTYPE svg PUBLIC "-//W3C//DTD SVG 1.1//EN" "http://www.w3.org/Graphics/SVG/1.1/DTD/svg11.dtd">
<!-- Creator: CorelDRAW X7 -->
<svg xmlns="http://www.w3.org/2000/svg" xml:space="preserve" width="150mm" height="150mm" version="1.1" style="shape-rendering:geometricPrecision; text-rendering:geometricPrecision; image-rendering:optimizeQuality; fill-rule:evenodd; clip-rule:evenodd"
viewBox="0 0 15000 15000"
 xmlns:xlink="http://www.w3.org/1999/xlink">
 <defs>
  <style type="text/css">
   <![CDATA[
    .fil0 {fill:white}
   ]]>
  </style>
 </defs>
 <g id="Layer_x0020_1">
  <metadata id="CorelCorpID_0Corel-Layer"/>
  <path class="fil0" d="M7500 0c4142,0 7500,3358 7500,7500 0,4142 -3358,7500 -7500,7500 -4142,0 -7500,-3358 -7500,-7500 0,-4142 3358,-7500 7500,-7500zm851 11489c-182,-4 -264,-100 -299,-257 -31,-137 -64,-275 -115,-404 -76,-191 -221,-299 -435,-300 -217,-2 -354,116 -425,308 -49,131 -78,270 -111,406 -50,209 -190,308 -390,233 -412,-156 -819,-323 -1220,-503 -202,-90 -226,-262 -111,-456 89,-150 185,-303 232,-469 93,-321 -226,-618 -543,-510 -153,52 -296,140 -434,226 -199,125 -374,98 -467,-110 -177,-397 -345,-798 -499,-1203 -91,-239 12,-377 264,-428 143,-29 285,-70 420,-125 168,-67 254,-207 256,-387 2,-188 -81,-336 -257,-406 -145,-59 -300,-98 -453,-135 -218,-51 -314,-189 -234,-401 154,-405 318,-808 495,-1204 99,-221 267,-246 477,-113 124,77 252,150 386,207 173,74 332,38 468,-98 134,-135 183,-292 109,-466 -59,-139 -137,-272 -219,-400 -123,-193 -95,-374 114,-467 402,-180 809,-347 1220,-502 199,-75 337,25 389,236 33,137 62,275 111,407 68,185 198,299 409,303 218,5 358,-103 431,-297 45,-120 75,-247 102,-372 56,-264 195,-359 444,-263 394,152 784,314 1169,487 233,104 259,268 120,487 -88,137 -176,282 -223,436 -93,306 186,607 497,531 161,-39 314,-128 456,-216 238,-148 394,-122 510,135 164,364 318,732 461,1105 103,269 8,405 -275,462 -131,27 -263,64 -385,119 -175,78 -272,222 -270,419 2,196 101,338 282,408 130,51 268,85 405,113 235,47 342,193 256,418 -151,400 -315,797 -489,1187 -99,223 -270,251 -477,123 -133,-83 -274,-158 -418,-220 -164,-71 -310,-17 -435,104 -128,125 -194,274 -121,446 65,155 152,302 237,448 98,168 78,346 -92,424 -411,187 -831,352 -1249,524 -26,10 -57,8 -74,10zm-3940 -2350l0 0c477,-251 929,-303 1333,90 419,407 384,874 131,1369 204,84 394,162 594,244 159,-505 436,-855 980,-875 598,-23 926,324 1103,872 198,-83 383,-160 576,-241 -239,-465 -291,-902 65,-1302 407,-456 889,-431 1405,-167 84,-207 162,-399 244,-599 -495,-149 -845,-422 -876,-955 -36,-612 323,-946 876,-1120 -86,-204 -164,-391 -244,-582 -459,234 -893,290 -1290,-54 -469,-405 -441,-894 -172,-1411 -211,-87 -403,-166 -605,-249 -158,503 -432,852 -978,875 -601,25 -917,-332 -1085,-877 -207,87 -394,165 -594,248 254,498 289,967 -133,1371 -404,387 -857,340 -1335,94 -84,204 -165,399 -250,604 517,148 857,438 880,976 26,599 -338,917 -879,1083 85,204 164,393 254,606zm1415 -1644c3,-926 748,-1666 1676,-1666 926,0 1675,747 1675,1669 0,920 -747,1672 -1669,1681 -920,9 -1684,-756 -1682,-1684zm317 1l0 0c-3,738 619,1365 1353,1366 738,0 1361,-619 1364,-1357 3,-740 -612,-1356 -1355,-1359 -746,-3 -1359,606 -1362,1350zm1361 -1102c615,1 1112,498 1109,1110 -4,609 -512,1116 -1116,1111 -613,-4 -1106,-503 -1106,-1117 1,-616 494,-1105 1113,-1104zm5 564l0 0c-304,-3 -554,242 -554,544 0,290 247,542 537,548 291,6 557,-257 556,-549 0,-291 -248,-540 -539,-543z"/>
 </g>
</svg>
