<?xml version="1.0" encoding="UTF-8"?>
<!DOCTYPE svg PUBLIC "-//W3C//DTD SVG 1.1//EN" "http://www.w3.org/Graphics/SVG/1.1/DTD/svg11.dtd">
<!-- Creator: CorelDRAW X7 -->
<svg xmlns="http://www.w3.org/2000/svg" xml:space="preserve" width="100mm" height="100mm" version="1.1" style="shape-rendering:geometricPrecision; text-rendering:geometricPrecision; image-rendering:optimizeQuality; fill-rule:evenodd; clip-rule:evenodd"
viewBox="0 0 10000 10000"
 xmlns:xlink="http://www.w3.org/1999/xlink"
 enable-background="new 0 0 40 40">
 <defs>
  <style type="text/css">
   <![CDATA[
    .fil0 {fill:white}
   ]]>
  </style>
 </defs>
 <g id="Layer_x0020_1">
  <metadata id="CorelCorpID_0Corel-Layer"/>
  <g id="_970251864720">
   <g>
    <path class="fil0" d="M5000 500c2481,0 4500,2019 4500,4500 0,2481 -2019,4500 -4500,4500 -2481,0 -4500,-2019 -4500,-4500 0,-2481 2019,-4500 4500,-4500l0 0zm0 -500c-2761,0 -5000,2239 -5000,5000 0,2762 2239,5000 5000,5000 2762,0 5000,-2238 5000,-5000 0,-2761 -2238,-5000 -5000,-5000l0 0z"/>
   </g>
  </g>
  <g>
   <g id="_970251865424">
    <path class="fil0" d="M2239 2929l0 4142 5522 0 0 -4142 -5522 0zm2761 2189l-2151 -1844 4302 0 -2151 1844zm0 454l673 -576 1513 1729 -4373 0 1514 -1729 672 576 1 0zm2416 892l-1481 -1693 1481 -1269 0 2962zm-3351 -1693l-1481 1693 0 -2962 1481 1269z"/>
   </g>
  </g>
 </g>
</svg>
