<?xml version="1.0" encoding="UTF-8"?>
<!DOCTYPE svg PUBLIC "-//W3C//DTD SVG 1.1//EN" "http://www.w3.org/Graphics/SVG/1.1/DTD/svg11.dtd">
<!-- Creator: CorelDRAW X7 -->
<svg xmlns="http://www.w3.org/2000/svg" xml:space="preserve" width="80mm" height="80mm" version="1.1" style="shape-rendering:geometricPrecision; text-rendering:geometricPrecision; image-rendering:optimizeQuality; fill-rule:evenodd; clip-rule:evenodd"
viewBox="0 0 8000 8000"
 xmlns:xlink="http://www.w3.org/1999/xlink">
 <defs>
  <style type="text/css">
   <![CDATA[
    .fil0 {fill:white}
   ]]>
  </style>
 </defs>
 <g id="Layer_x0020_1">
  <metadata id="CorelCorpID_0Corel-Layer"/>
  <g id="_1034732847296">
   <path class="fil0" d="M5521 2111c210,60 395,85 551,164 219,111 346,320 341,563 -20,1030 -7,2064 -99,3088 -115,1265 -1192,2118 -2494,2072 -1168,-41 -2160,-1017 -2215,-2229 -36,-776 -7,-1555 -7,-2332 0,-436 -3,-872 1,-1308 3,-454 198,-668 664,-726 9,-233 58,-459 247,-629 189,-171 410,-218 651,-183 217,-449 451,-619 807,-587 325,28 548,237 664,629 48,0 100,0 152,0 418,0 727,297 736,717 6,264 1,529 1,761zm-3275 -126l0 0c-21,2 -43,4 -65,6 -7,74 -18,147 -18,221 -2,1025 -2,2050 -1,3076 0,182 -6,365 13,545 100,944 900,1622 1877,1601 896,-19 1689,-783 1727,-1692 38,-924 50,-1848 74,-2772 4,-124 -20,-240 -167,-239 -149,0 -164,123 -165,243 -2,271 1,542 -10,812 -10,231 -117,334 -306,322 -182,-11 -256,-139 -255,-368 4,-795 0,-1591 -11,-2386 -1,-52 -83,-142 -130,-144 -56,-3 -142,60 -166,115 -30,70 -11,162 -11,244 0,724 5,1449 0,2173 -1,205 -134,329 -302,317 -168,-12 -261,-152 -261,-354 0,-978 -5,-1956 -8,-2934 0,-109 -39,-195 -153,-198 -121,-4 -174,77 -172,197 5,424 12,848 12,1272 1,577 0,1155 -9,1732 -3,180 -137,296 -294,285 -160,-12 -269,-140 -268,-316 4,-501 11,-1001 11,-1502 0,-294 -11,-589 -15,-883 -1,-116 -46,-206 -166,-209 -125,-3 -164,95 -168,206 -3,59 -5,118 -5,176 4,707 8,1414 11,2121 0,70 -1,142 -14,211 -32,178 -156,267 -327,244 -146,-20 -231,-137 -230,-305 3,-536 6,-1072 6,-1608 0,-69 -22,-139 -34,-209z"/>
   <path class="fil0" d="M4973 4625c97,3 274,-62 291,140 18,212 -174,167 -296,176 -316,22 -616,94 -890,254 -415,243 -644,608 -698,1083 -4,36 -10,71 -12,106 -5,117 -35,221 -179,206 -144,-15 -144,-129 -137,-241 67,-958 766,-1637 1767,-1715 41,-3 82,-5 154,-9z"/>
  </g>
 </g>
</svg>
