<?xml version="1.0" encoding="UTF-8"?>
<!DOCTYPE svg PUBLIC "-//W3C//DTD SVG 1.1//EN" "http://www.w3.org/Graphics/SVG/1.1/DTD/svg11.dtd">
<!-- Creator: CorelDRAW X7 -->
<svg xmlns="http://www.w3.org/2000/svg" xml:space="preserve" width="100mm" height="100mm" version="1.1" style="shape-rendering:geometricPrecision; text-rendering:geometricPrecision; image-rendering:optimizeQuality; fill-rule:evenodd; clip-rule:evenodd"
viewBox="0 0 10000 10000"
 xmlns:xlink="http://www.w3.org/1999/xlink"
 enable-background="new 0 0 40 40">
 <defs>
  <style type="text/css">
   <![CDATA[
    .fil0 {fill:#454545}
   ]]>
  </style>
 </defs>
 <g id="Layer_x0020_1">
  <metadata id="CorelCorpID_0Corel-Layer"/>
  <g id="_968560442928">
   <g>
    <g>
     <g>
      <g>
       <path class="fil0" d="M5000 500c2481,0 4500,2019 4500,4500 0,2481 -2019,4500 -4500,4500 -2481,0 -4500,-2019 -4500,-4500 0,-2481 2019,-4500 4500,-4500l0 0zm0 -500c-2761,0 -5000,2239 -5000,5000 0,2762 2239,5000 5000,5000 2762,0 5000,-2238 5000,-5000 0,-2761 -2238,-5000 -5000,-5000l0 0z"/>
      </g>
     </g>
    </g>
   </g>
   <path class="fil0" d="M3593 2448c302,-57 499,284 650,518 146,228 327,496 254,793 -41,166 -191,257 -305,355 -112,97 -283,186 -325,335 -67,242 81,495 173,640 208,326 460,621 782,883 156,128 372,298 589,254 323,-65 409,-464 761,-518 336,-50 563,193 752,356 183,158 477,360 457,630 -11,155 -136,251 -244,345 -110,96 -206,203 -314,274 -263,172 -585,256 -955,244 -363,-11 -652,-134 -914,-274 -513,-274 -918,-658 -1300,-1087 -376,-422 -722,-921 -914,-1472 -239,-689 -113,-1397 274,-1839 66,-75 169,-153 264,-233 95,-81 182,-179 315,-204z"/>
  </g>
 </g>
</svg>
