<?xml version="1.0" encoding="UTF-8"?>
<!DOCTYPE svg PUBLIC "-//W3C//DTD SVG 1.1//EN" "http://www.w3.org/Graphics/SVG/1.1/DTD/svg11.dtd">
<!-- Creator: CorelDRAW X7 -->
<svg xmlns="http://www.w3.org/2000/svg" xml:space="preserve" width="80mm" height="80mm" version="1.1" style="shape-rendering:geometricPrecision; text-rendering:geometricPrecision; image-rendering:optimizeQuality; fill-rule:evenodd; clip-rule:evenodd"
viewBox="0 0 8000 8000"
 xmlns:xlink="http://www.w3.org/1999/xlink">
 <defs>
  <style type="text/css">
   <![CDATA[
    .fil0 {fill:white}
   ]]>
  </style>
 </defs>
 <g id="Layer_x0020_1">
  <metadata id="CorelCorpID_0Corel-Layer"/>
  <g id="_524765889984">
   <path class="fil0" d="M4699 4758c0,0 21,31 22,188 2,712 1,1700 1,2412 -1,404 -230,637 -631,641 -106,1 -213,4 -317,-10 -275,-36 -489,-264 -491,-539 -6,-829 -3,-1659 -1,-2488 1,-69 23,-138 37,-220 -132,-69 -267,-136 -400,-209 -488,-267 -938,-582 -1300,-1012 -325,-386 -491,-834 -558,-1329 -83,-611 -179,-1221 -267,-1831 -33,-232 77,-360 311,-360 1929,-1 3859,-1 5789,0 232,0 345,114 312,341 -106,744 -195,1493 -342,2229 -137,689 -599,1176 -1157,1565 -321,225 -668,414 -1008,622zm1696 -2887l0 0c-520,335 -711,325 -1209,-61 -199,-155 -388,-143 -604,39 -416,349 -751,350 -1160,2 -229,-195 -417,-198 -645,-10 -426,351 -716,359 -1150,32 -7,-5 -21,-1 -38,-1 11,83 26,163 33,244 48,497 267,905 626,1248 481,459 1053,763 1666,1000 62,24 155,12 217,-18 378,-187 767,-360 1122,-585 685,-434 1148,-1023 1142,-1890zm216 -1294l0 0c-1757,0 -3482,0 -5211,0 4,60 4,108 11,154 58,340 34,693 424,908 290,160 442,205 705,-18 375,-317 736,-317 1108,0 266,227 441,220 716,-1 107,-87 232,-165 362,-205 285,-88 532,13 741,213 144,137 315,217 496,129 182,-88 341,-224 508,-342 15,-11 21,-41 24,-64 39,-255 77,-510 116,-774zm-2756 4412l0 0c0,814 0,1620 0,2431 103,0 198,0 293,0 0,-818 0,-1620 0,-2431 -101,0 -192,0 -293,0z"/>
  </g>
 </g>
</svg>
