<?xml version="1.0" encoding="UTF-8"?>
<!DOCTYPE svg PUBLIC "-//W3C//DTD SVG 1.1//EN" "http://www.w3.org/Graphics/SVG/1.1/DTD/svg11.dtd">
<!-- Creator: CorelDRAW X7 -->
<svg xmlns="http://www.w3.org/2000/svg" xml:space="preserve" width="80mm" height="80mm" version="1.1" style="shape-rendering:geometricPrecision; text-rendering:geometricPrecision; image-rendering:optimizeQuality; fill-rule:evenodd; clip-rule:evenodd"
viewBox="0 0 8000 8000"
 xmlns:xlink="http://www.w3.org/1999/xlink">
 <defs>
  <style type="text/css">
   <![CDATA[
    .fil0 {fill:white}
   ]]>
  </style>
 </defs>
 <g id="Layer_x0020_1">
  <metadata id="CorelCorpID_0Corel-Layer"/>
  <g id="_524453473792">
   <path class="fil0" d="M3844 4276c-97,-54 -153,-92 -213,-118 -1110,-484 -2219,-968 -3332,-1444 -163,-70 -228,-161 -224,-339 8,-350 -9,-699 -14,-1049 -3,-219 30,-251 248,-255 65,-1 130,0 203,0 11,-126 9,-235 32,-338 90,-413 454,-727 880,-728 1743,-6 3487,-7 5230,0 472,3 846,381 896,859 6,60 8,120 12,184 127,69 384,-64 377,194 -7,230 -235,116 -368,170 -14,102 -22,209 -44,313 -96,435 -463,737 -907,738 -1720,2 -3439,2 -5159,0 -527,-1 -913,-389 -938,-925 -3,-52 -46,-101 -70,-152 -16,8 -32,16 -49,24 0,306 -6,612 7,917 2,47 83,107 140,132 1032,452 2065,899 3098,1348 67,29 131,62 200,85 188,64 340,150 261,391 105,40 199,63 280,108 195,107 303,277 304,500 3,839 2,1677 -1,2516 0,65 -14,132 -36,193 -122,327 -473,462 -957,373 -287,-53 -481,-295 -482,-612 -2,-760 -1,-1520 -1,-2280 0,-495 106,-641 627,-805zm202 -3696l0 0c-839,0 -1678,0 -2517,1 -288,0 -423,134 -425,417 -1,163 -2,326 0,489 3,252 139,397 388,397 1696,2 3392,2 5087,0 245,0 389,-148 397,-397 5,-144 2,-289 1,-434 -1,-344 -129,-472 -470,-472 -820,-1 -1641,-1 -2461,-1zm63 4321l0 0c-109,0 -202,0 -300,0 0,837 0,1663 0,2495 107,0 200,0 300,0 0,-834 0,-1657 0,-2495z"/>
  </g>
 </g>
</svg>
