<?xml version="1.0" encoding="UTF-8"?>
<!DOCTYPE svg PUBLIC "-//W3C//DTD SVG 1.1//EN" "http://www.w3.org/Graphics/SVG/1.1/DTD/svg11.dtd">
<!-- Creator: CorelDRAW X7 -->
<svg xmlns="http://www.w3.org/2000/svg" xml:space="preserve" width="100mm" height="100mm" version="1.1" style="shape-rendering:geometricPrecision; text-rendering:geometricPrecision; image-rendering:optimizeQuality; fill-rule:evenodd; clip-rule:evenodd"
viewBox="0 0 10000 10000"
 xmlns:xlink="http://www.w3.org/1999/xlink"
 enable-background="new 0 0 40 40">
 <defs>
  <style type="text/css">
   <![CDATA[
    .fil0 {fill:white}
   ]]>
  </style>
 </defs>
 <g id="Layer_x0020_1">
  <metadata id="CorelCorpID_0Corel-Layer"/>
  <g id="_970251322688">
   <g>
    <path class="fil0" d="M5000 500c2481,0 4500,2019 4500,4500 0,2481 -2019,4500 -4500,4500 -2481,0 -4500,-2019 -4500,-4500 0,-2481 2019,-4500 4500,-4500l0 0zm0 -500c-2761,0 -5000,2239 -5000,5000 0,2762 2239,5000 5000,5000 2762,0 5000,-2238 5000,-5000 0,-2761 -2238,-5000 -5000,-5000l0 0z"/>
   </g>
  </g>
  <path class="fil0" d="M5000 8304c-1319,-2539 -2087,-2848 -2087,-4001 0,-1153 934,-2087 2087,-2087 1153,0 2087,934 2087,2087 0,1153 -822,1577 -2087,4001zm0 -5131c588,0 1065,477 1065,1065 0,588 -477,1065 -1065,1065 -588,0 -1065,-477 -1065,-1065 0,-588 477,-1065 1065,-1065z"/>
 </g>
</svg>
