<?xml version="1.0" encoding="UTF-8"?>
<!DOCTYPE svg PUBLIC "-//W3C//DTD SVG 1.1//EN" "http://www.w3.org/Graphics/SVG/1.1/DTD/svg11.dtd">
<!-- Creator: CorelDRAW X7 -->
<svg xmlns="http://www.w3.org/2000/svg" xml:space="preserve" width="150mm" height="150mm" version="1.1" style="shape-rendering:geometricPrecision; text-rendering:geometricPrecision; image-rendering:optimizeQuality; fill-rule:evenodd; clip-rule:evenodd"
viewBox="0 0 15000 15000"
 xmlns:xlink="http://www.w3.org/1999/xlink">
 <defs>
  <style type="text/css">
   <![CDATA[
    .fil0 {fill:#FEFEFE}
   ]]>
  </style>
 </defs>
 <g id="Layer_x0020_1">
  <metadata id="CorelCorpID_0Corel-Layer"/>
  <path class="fil0" d="M7500 0c4142,0 7500,3358 7500,7500 0,4142 -3358,7500 -7500,7500 -4142,0 -7500,-3358 -7500,-7500 0,-4142 3358,-7500 7500,-7500zm-148 8511c-91,-51 -144,-87 -201,-112 -1049,-457 -2098,-915 -3150,-1365 -154,-65 -215,-152 -212,-320 8,-331 -9,-661 -13,-992 -3,-207 29,-237 234,-241 62,-1 123,0 192,0 11,-119 9,-222 30,-319 86,-391 430,-687 832,-689 1649,-5 3297,-7 4945,1 446,2 800,359 847,812 6,56 8,113 12,173 120,66 363,-60 356,183 -6,218 -222,111 -348,162 -13,96 -20,197 -42,295 -91,412 -437,697 -857,698 -1626,2 -3251,2 -4877,0 -499,-1 -863,-368 -888,-874 -2,-49 -42,-96 -65,-144 -16,8 -31,15 -46,23 0,289 -6,578 6,866 2,45 78,102 133,126 975,427 1952,850 2929,1274 62,27 123,59 188,80 178,60 322,142 247,369 99,38 188,61 265,103 184,101 286,262 287,473 3,793 2,1585 0,2378 -1,61 -14,125 -35,183 -115,309 -447,437 -904,352 -272,-50 -456,-278 -456,-578 -2,-719 -1,-1437 -1,-2156 0,-468 100,-605 592,-761zm191 -3494l0 0c-793,0 -1586,-1 -2379,1 -273,0 -400,126 -402,394 -1,154 -2,308 0,462 3,239 132,376 367,376 1603,1 3206,1 4809,0 232,-1 368,-140 376,-375 5,-137 2,-274 1,-411 -2,-325 -122,-446 -444,-447 -776,0 -1552,0 -2328,0zm60 4085l0 0c-103,0 -191,0 -284,0 0,791 0,1572 0,2359 101,0 189,0 284,0 0,-789 0,-1567 0,-2359z"/>
 </g>
</svg>
