<?xml version="1.0" encoding="UTF-8"?>
<!DOCTYPE svg PUBLIC "-//W3C//DTD SVG 1.1//EN" "http://www.w3.org/Graphics/SVG/1.1/DTD/svg11.dtd">
<!-- Creator: CorelDRAW X7 -->
<svg xmlns="http://www.w3.org/2000/svg" xml:space="preserve" width="300mm" height="52mm" version="1.1" style="shape-rendering:geometricPrecision; text-rendering:geometricPrecision; image-rendering:optimizeQuality; fill-rule:evenodd; clip-rule:evenodd"
viewBox="0 0 30000 5200"
 xmlns:xlink="http://www.w3.org/1999/xlink">
 <defs>
  <style type="text/css">
   <![CDATA[
    .fil0 {fill:white;fill-rule:nonzero}
   ]]>
  </style>
 </defs>
 <g id="Layer_x0020_1">
  <metadata id="CorelCorpID_0Corel-Layer"/>
  <g id="_796488822624">
   <path class="fil0" d="M27397 3828c-686,0 -1242,-554 -1242,-1237 0,-683 556,-1236 1242,-1236 686,0 1242,553 1242,1236 0,683 -556,1237 -1242,1237zm0 -3828c-1438,0 -2603,1160 -2603,2591 0,1431 1165,2591 2603,2591 1437,0 2603,-1160 2603,-2591 0,-1431 -1166,-2591 -2603,-2591z"/>
   <path class="fil0" d="M17543 2660c-36,651 -578,1168 -1241,1168 -686,0 -1242,-554 -1242,-1237 0,-683 556,-1236 1242,-1236 663,0 1205,517 1241,1168l0 137zm-1241 -2660c-1437,0 -2603,1160 -2603,2591 0,1431 1166,2591 2603,2591 361,0 1024,-224 1241,-586l0 573 1363 0 0 -2741 -6 0c-84,-1355 -1215,-2428 -2598,-2428z"/>
   <path class="fil0" d="M21852 0c-451,0 -989,239 -1245,637l0 -637 -1363 0 0 5169 1363 0 0 -1830 2 0c0,-1670 731,-1984 1243,-1984 683,0 1238,550 1242,1230l-2 0 0 2584 1363 0 0 -2584 0 0c-4,-1428 -1168,-2585 -2603,-2585z"/>
   <path class="fil0" d="M12893 0c-449,0 -872,186 -1240,486l0 -486 -1363 0 0 5169 1363 0 0 -1996c36,-1525 577,-1818 1240,-1818 165,0 323,32 467,91l680 -1085c-338,-176 -752,-361 -1147,-361z"/>
   <path class="fil0" d="M3045 2683c-47,640 -583,1145 -1238,1145l-444 -5 0 -3805 -1363 0 0 5182 1830 0c1031,0 2578,-1040 2578,-2415l0 -2767 -1363 0 0 2665z"/>
   <path class="fil0" d="M6230 2054c201,-414 627,-699 1120,-699 493,0 918,285 1119,699l-2239 0zm3705 238l1 0c-10,-81 -23,-160 -39,-238 -4,-16 -7,-33 -11,-50 -1,-5 -2,-9 -4,-14 -2,-9 -4,-18 -6,-26 -277,-1119 -1286,-1951 -2492,-1964 -10,0 -19,0 -29,0 -11,0 -22,0 -34,0 -1424,15 -2574,1170 -2574,2591 0,1376 1077,2501 2437,2586l2400 5 0 -1356c0,0 -1688,1 -2175,0 4,0 7,0 10,0l-139 0c-484,-27 -894,-329 -1074,-752l3745 0 0 -478c0,-4 0,-8 0,-12 0,-3 0,-7 0,-11 0,-95 -6,-189 -16,-281z"/>
  </g>
 </g>
</svg>
